<?xml version="1.0" standalone="no"?>
<!DOCTYPE svg PUBLIC "-//W3C//DTD SVG 20010904//EN"
 "http://www.w3.org/TR/2001/REC-SVG-20010904/DTD/svg10.dtd">
<svg version="1.0" xmlns="http://www.w3.org/2000/svg"
 width="512.000000pt" height="512.000000pt" viewBox="0 0 512.000000 512.000000"
 preserveAspectRatio="xMidYMid meet">
<metadata>
Created by potrace 1.11, written by Peter Selinger 2001-2013
</metadata>
<g transform="translate(0.000000,512.000000) scale(0.100000,-0.100000)"
fill="#000000" stroke="none">
<path d="M2210 5068 c-36 -4 -92 -14 -125 -23 -33 -9 -70 -16 -82 -16 -12 0
-25 -4 -28 -9 -4 -6 -11 -8 -16 -4 -5 3 -15 1 -22 -4 -7 -5 -28 -12 -47 -15
-53 -8 -67 -12 -81 -24 -8 -6 -30 -13 -49 -17 -19 -3 -48 -13 -64 -21 -15 -8
-34 -15 -40 -15 -6 0 -23 -8 -36 -17 -14 -10 -29 -18 -35 -18 -26 -1 -124 -41
-170 -70 -27 -17 -70 -40 -95 -50 -25 -11 -70 -37 -101 -57 -31 -21 -61 -38
-67 -38 -5 0 -12 -6 -15 -12 -3 -7 -22 -22 -43 -33 -38 -19 -62 -36 -89 -62
-8 -7 -18 -13 -23 -13 -5 0 -26 -18 -45 -39 -19 -22 -37 -37 -40 -35 -2 3 -21
-11 -41 -31 -20 -19 -39 -35 -43 -35 -8 0 -146 -143 -192 -200 -20 -24 -43
-52 -51 -61 -8 -9 -26 -33 -40 -53 -14 -20 -39 -56 -55 -79 -17 -23 -48 -71
-70 -107 -21 -36 -45 -71 -52 -78 -7 -7 -16 -25 -19 -40 -4 -15 -15 -38 -24
-52 -9 -14 -20 -37 -24 -52 -3 -15 -22 -62 -42 -105 -40 -85 -62 -154 -100
-308 -14 -55 -34 -134 -45 -175 -10 -41 -21 -97 -24 -123 -3 -27 -7 -53 -10
-58 -11 -16 -27 -243 -30 -414 -3 -180 20 -417 50 -525 9 -30 22 -84 30 -120
16 -80 60 -224 80 -267 8 -17 15 -36 15 -43 0 -6 14 -41 31 -78 17 -37 39 -85
49 -107 10 -22 25 -56 34 -77 9 -20 16 -39 16 -44 0 -4 11 -22 25 -40 14 -18
25 -38 25 -44 0 -7 11 -26 25 -44 34 -42 35 -43 78 -108 20 -32 37 -60 37 -63
0 -7 15 -25 55 -68 17 -18 50 -56 75 -86 25 -29 72 -79 104 -110 33 -31 66
-64 75 -73 8 -10 19 -18 23 -18 4 0 22 -14 40 -31 33 -31 83 -67 142 -103 17
-10 33 -21 36 -25 8 -10 43 -30 83 -47 20 -9 37 -19 37 -23 0 -4 17 -13 38
-20 20 -8 39 -17 42 -20 3 -4 25 -15 50 -25 25 -10 72 -31 105 -47 33 -16 74
-31 90 -35 17 -4 35 -10 40 -14 6 -3 37 -15 70 -25 33 -10 67 -20 75 -23 8 -3
30 -7 49 -9 19 -2 40 -8 46 -13 6 -5 28 -10 48 -12 20 -1 37 -5 37 -9 0 -4 9
-5 20 -2 11 3 26 0 34 -6 7 -6 68 -18 134 -26 67 -8 133 -20 147 -25 16 -6
151 -10 333 -10 l306 1 26 29 c20 24 40 32 104 45 43 9 81 13 84 10 3 -2 11 4
19 15 9 13 26 20 47 20 19 0 39 6 45 14 6 7 39 16 73 20 34 3 67 11 72 16 6 6
22 10 37 10 15 0 32 6 38 14 12 14 66 32 74 24 2 -2 11 4 20 13 8 9 34 19 56
23 23 3 41 10 41 15 0 5 10 11 23 13 17 2 21 9 19 31 -1 15 2 27 8 27 5 0 10
-6 10 -14 0 -9 8 -12 23 -9 23 5 98 42 107 53 3 3 23 11 45 18 22 6 56 25 75
42 19 16 46 32 61 35 15 3 34 14 44 25 9 10 30 24 46 30 16 7 29 19 29 26 0 8
7 14 15 14 8 0 15 4 15 10 0 5 33 31 73 57 39 26 80 58 90 70 10 13 25 23 33
23 8 0 14 7 14 14 0 8 20 34 45 57 24 23 47 50 50 60 4 11 15 19 25 19 10 0
21 8 24 18 3 9 28 42 56 72 27 30 50 59 50 64 0 4 20 31 45 58 25 28 45 56 45
62 0 7 13 30 30 52 16 21 30 43 30 47 0 4 9 18 20 30 11 11 23 38 26 59 4 21
10 38 15 38 5 0 9 5 9 10 0 6 9 20 20 32 11 12 23 37 26 55 3 18 15 44 25 57
11 14 22 46 25 73 4 26 15 57 25 68 10 11 23 43 30 70 7 28 18 72 25 98 7 26
10 55 7 64 -5 13 -2 15 11 10 13 -5 17 -3 13 7 -3 8 -2 16 4 18 5 2 11 29 13
60 3 32 7 62 11 68 3 5 8 22 10 37 2 16 9 60 16 98 14 81 19 463 7 515 -4 19
-10 69 -13 110 -3 41 -8 86 -10 100 -3 14 -9 55 -14 91 -5 36 -19 88 -31 115
-13 28 -22 65 -21 85 3 53 -25 147 -70 231 -5 10 -9 26 -9 35 -1 10 -9 36 -20
58 -11 22 -19 46 -20 53 0 6 -4 12 -10 12 -5 0 -10 10 -10 23 0 12 -9 33 -20
47 -11 14 -20 32 -20 41 0 9 -9 28 -20 42 -12 14 -30 45 -41 69 -20 42 -95
159 -121 188 -7 8 -26 32 -42 55 -66 91 -282 307 -391 391 -79 60 -145 104
-155 104 -5 0 -10 5 -10 10 0 6 -6 10 -14 10 -7 0 -19 7 -26 15 -7 8 -32 24
-57 35 -24 10 -58 30 -76 42 -43 31 -76 48 -94 48 -8 0 -26 9 -40 20 -14 11
-34 20 -44 20 -11 0 -19 3 -19 8 0 9 -49 32 -69 32 -9 0 -27 9 -41 20 -14 11
-36 20 -50 20 -15 0 -30 4 -35 9 -6 4 -32 14 -60 20 -27 7 -59 17 -70 21 -63
26 -206 70 -236 71 -19 2 -40 7 -47 13 -8 5 -41 10 -75 10 -44 1 -68 6 -81 19
-15 13 -39 17 -100 18 -158 2 -431 9 -436 10 -14 5 -83 3 -140 -3z m720 -178
c0 -10 65 -85 118 -135 18 -17 41 -43 51 -58 10 -16 40 -51 68 -80 27 -29 70
-79 96 -112 70 -89 89 -113 125 -152 17 -20 32 -42 32 -50 0 -7 4 -13 8 -13 4
0 16 -14 26 -31 21 -36 113 -164 156 -219 17 -21 30 -42 30 -48 0 -5 9 -21 20
-35 20 -25 64 -104 117 -207 15 -30 36 -62 45 -71 10 -9 15 -19 12 -22 -3 -3
16 -49 41 -104 26 -54 60 -134 77 -178 41 -109 44 -116 57 -148 6 -15 11 -40
11 -55 0 -21 2 -24 10 -12 8 11 9 8 4 -12 -3 -14 1 -54 10 -88 9 -34 16 -69
16 -78 0 -8 10 -26 23 -40 19 -21 20 -25 7 -35 -13 -10 -16 -47 -17 -217 -1
-157 -6 -227 -21 -300 -11 -52 -20 -102 -20 -110 -1 -8 -11 -51 -22 -95 -31
-117 -42 -175 -35 -193 3 -8 -1 -22 -8 -31 -17 -19 -87 -204 -87 -229 0 -10
-8 -36 -19 -58 -10 -21 -27 -64 -37 -94 -11 -30 -25 -61 -31 -68 -7 -7 -20
-38 -29 -68 -8 -30 -19 -54 -23 -54 -10 0 -52 -94 -54 -121 -1 -10 -3 -16 -6
-13 -3 2 -18 -17 -34 -42 l-29 -47 20 -27 c24 -32 15 -63 -12 -41 -11 9 -14
22 -9 39 10 43 -10 17 -52 -65 -22 -43 -48 -87 -57 -97 -10 -11 -18 -25 -18
-31 0 -6 -7 -20 -15 -30 -18 -23 -95 -131 -160 -225 -25 -36 -45 -75 -45 -88
0 -17 -5 -23 -17 -20 -12 2 -35 -19 -70 -62 -29 -36 -53 -69 -53 -75 0 -5 -27
-36 -60 -69 -33 -32 -57 -62 -54 -67 3 -5 1 -9 -5 -9 -6 0 -31 -21 -56 -47
-41 -43 -46 -46 -60 -32 -14 14 -16 53 -15 285 1 148 1 382 1 519 -1 266 -1
553 1 564 0 3 0 8 -1 11 -1 3 -2 292 -2 642 0 414 -3 640 -10 644 -6 4 -6 11
1 19 7 8 11 45 10 87 -1 40 -2 120 -2 178 0 58 0 114 -1 125 0 11 1 79 2 150
2 104 4 466 3 560 -2 111 -3 687 -3 778 l1 117 25 0 c14 0 25 -4 25 -10z
m-707 -678 c0 -328 -3 -607 -7 -619 -7 -21 -13 -23 -99 -25 -51 0 -99 -1 -107
0 -8 1 -160 2 -338 2 l-323 1 6 32 c4 18 13 39 20 47 7 8 16 25 19 38 4 12 12
22 17 22 5 0 9 8 9 18 0 9 9 28 20 42 11 14 20 30 20 35 1 6 17 30 36 55 19
25 39 57 45 73 6 15 15 27 20 27 5 0 9 6 9 13 0 8 11 27 25 43 14 16 34 47 45
69 11 22 31 53 45 69 13 16 27 36 30 46 3 10 12 21 20 24 8 3 15 12 15 21 0 8
4 15 10 15 5 0 6 7 3 17 -5 11 -3 14 6 8 16 -9 32 14 25 36 -3 12 1 16 13 15
9 0 19 7 21 16 2 9 21 35 42 58 21 23 41 54 45 70 3 16 17 36 31 44 13 9 24
23 24 31 0 8 4 15 9 15 5 0 13 9 16 20 4 11 10 18 14 16 10 -6 62 78 64 104 1
14 7 20 17 17 18 -5 40 16 40 38 0 8 4 15 9 15 5 0 12 8 15 18 8 25 49 41 59
24 5 -7 9 -282 10 -610z m-315 -1059 c75 2 142 6 149 10 6 4 14 4 17 -1 2 -4
33 -9 68 -10 34 -2 66 -6 70 -10 9 -9 16 -2937 8 -2945 -14 -14 -66 11 -111
54 -28 27 -55 49 -58 49 -4 0 -20 18 -37 40 -16 22 -32 40 -36 40 -18 0 -306
304 -317 334 -2 6 -12 18 -21 26 -9 8 -21 22 -26 31 -5 9 -24 34 -41 55 -59
70 -83 102 -83 109 0 3 -13 26 -30 50 -16 24 -30 47 -30 52 0 4 -14 26 -30 47
-17 22 -30 46 -30 53 0 7 -4 13 -10 13 -8 0 -150 280 -150 296 0 4 -13 34 -29
68 -16 34 -35 81 -42 106 -7 25 -21 62 -31 82 -10 21 -18 49 -18 63 0 15 -5
36 -11 47 -6 12 -18 53 -26 92 -8 39 -17 78 -20 86 -3 8 -7 33 -8 55 -2 22 -9
85 -16 140 -24 170 -12 619 17 683 9 18 16 42 17 52 1 11 5 20 10 20 4 0 6 4
3 9 -3 4 3 27 14 49 11 23 20 47 20 54 0 7 7 22 15 32 8 11 15 26 15 34 0 18
30 49 30 30 1 -10 4 -9 13 2 9 12 24 14 62 9 28 -3 159 -6 292 -6 219 -1 241
1 236 16 -4 14 -3 14 7 -1 9 -15 27 -17 148 -15z m3132 -649 c0 -8 -4 -12 -10
-9 -5 3 -10 10 -10 16 0 5 5 9 10 9 6 0 10 -7 10 -16z m-610 -14 c0 -5 -4 -10
-10 -10 -5 0 -10 5 -10 10 0 6 5 10 10 10 6 0 10 -4 10 -10z m-2100 -1124
c-14 -14 -24 0 -16 21 6 15 8 15 16 3 6 -9 5 -19 0 -24z"/>
</g>
</svg>
